<!-- by TradingView --><svg width="18" height="18" viewBox="0 0 18 18" xmlns="http://www.w3.org/2000/svg"><path fill="#F0F3FA" d="M0 0h18v18H0z"/><path d="M14.9 7.93c-.18.54-.6.87-1.27.99a.06.06 0 0 0-.05.03.06.06 0 0 0 .01.06c.36.48.81.61 1.35.41a.04.04 0 0 1 .05.01.04.04 0 0 1 0 .05c-.36.5-.85.71-1.47.63a.07.07 0 0 0-.07.02.07.07 0 0 0 0 .08c.2.55.6.8 1.18.74a.04.04 0 0 1 .03.02.04.04 0 0 1 0 .05c-.53.42-1.06.49-1.61.21h-.03a.06.06 0 0 0-.05.03v.03c.07.62.39.97.93 1.04a.05.05 0 0 1 .05.04.05.05 0 0 1-.03.05c-.6.27-1.12.2-1.58-.2a.06.06 0 0 0-.08 0l-.01.03c-.12.6.1 1.03.65 1.26a.05.05 0 0 1-.01.09c-.67.08-1.17-.13-1.5-.63a.06.06 0 0 0-.08-.01c-.01 0-.02 0-.02.02-.25.52-.16.97.27 1.35a.06.06 0 0 1 .01.07l-.02.03h-.04c-.45-.04-.91-.3-1.11-.7a4.78 4.78 0 0 0-.16-.3.07.07 0 0 0-.06 0 .07.07 0 0 0-.03.03c-.35.46-.37.93-.05 1.4l.01.03v.02a.04.04 0 0 1-.05.01c-.6-.24-.93-.65-.97-1.23a.1.1 0 0 0-.06-.08.1.1 0 0 0-.1.01c-.44.36-.57.8-.38 1.32a.05.05 0 0 1-.05.06h-.02a1.45 1.45 0 0 1-.6-1.55.04.04 0 0 0-.04-.02h-.02c-.58.21-.84.6-.79 1.17a.05.05 0 0 1-.03.05h-.03l-.03-.01c-.38-.47-.45-1-.2-1.58A.05.05 0 0 0 6.7 13H6.7c-.6.04-.95.35-1.05.92a.05.05 0 0 1-.08.01 1.4 1.4 0 0 1 .19-1.56.08.08 0 0 0 .01-.08.08.08 0 0 0-.06-.05c-.57-.08-.98.13-1.2.62a.05.05 0 0 1-.06.03.05.05 0 0 1-.04-.04c-.1-.63.1-1.1.6-1.43a.08.08 0 0 0 .04-.08.08.08 0 0 0-.06-.07c-.61-.2-1.07-.08-1.35.34a.05.05 0 0 1-.08 0v-.03c.08-.67.4-1.1.98-1.3a.06.06 0 0 0 .02-.1c-.5-.38-.98-.4-1.44-.05a.03.03 0 0 1-.04 0 .03.03 0 0 1-.01-.04c.23-.62.66-.96 1.3-1.02a.05.05 0 0 0 .04-.05V9c-.35-.5-.8-.65-1.32-.45A.06.06 0 0 1 3 8.49l.01-.04c.4-.5.85-.64 1.43-.58a.08.08 0 0 0 .09-.07v-.04c-.21-.54-.6-.79-1.19-.73A.04.04 0 0 1 3.31 7a.04.04 0 0 1 0-.04c.52-.41 1.05-.49 1.58-.22a.08.08 0 0 0 .12-.09c-.1-.6-.42-.93-.96-1a.04.04 0 0 1-.03-.04.04.04 0 0 1 .02-.05c.6-.27 1.12-.2 1.6.2a.06.06 0 0 0 .09-.03c.1-.62-.12-1.04-.67-1.27a.04.04 0 0 1-.03-.04.04.04 0 0 1 .04-.03c.68-.1 1.19.12 1.5.63A.06.06 0 0 0 6.69 5c.25-.54.16-.99-.26-1.35a.05.05 0 0 1 .03-.1c.53.07.88.27 1.06.6a224.72 224.72 0 0 1 .23.39.08.08 0 0 0 .1-.03c.24-.37.38-.84.14-1.2a.6.6 0 0 1-.1-.18.05.05 0 0 1 .02-.05.06.06 0 0 1 .06-.01c.57.23.88.66.94 1.28a.05.05 0 0 0 .06.04h.02c.36-.27.54-.59.53-.97 0-.12-.1-.3-.09-.37A.06.06 0 0 1 9.5 3l.03.01c.5.39.68.88.57 1.47a.06.06 0 0 0 .03.06.06.06 0 0 0 .06 0c.56-.23.81-.62.76-1.15v-.04a.06.06 0 0 1 .07-.02c.01 0 .02 0 .03.02a1.46 1.46 0 0 1 .19 1.6v.02l.02.02h.03c.6-.05.95-.36 1.05-.94a.04.04 0 0 1 .04-.04h.02l.02.03c.26.6.2 1.13-.2 1.57a.09.09 0 0 0 0 .1.09.09 0 0 0 .07.05c.6.04 1-.18 1.18-.64a.06.06 0 0 1 .06-.03.06.06 0 0 1 .05.04c.1.63-.11 1.11-.63 1.46a.06.06 0 0 0-.01.1l.02.01c.59.22 1.05.12 1.38-.3a.06.06 0 0 1 .1.04c-.06.6-.4 1.03-1 1.27a.05.05 0 0 0-.03.04.05.05 0 0 0 .02.05c.47.38.94.4 1.4.07a.05.05 0 0 1 .07.06Z" fill="#BF7426"/><path d="M12.37 9a3.41 3.41 0 0 1-3.4 3.4A3.38 3.38 0 0 1 5.6 9a3.41 3.41 0 0 1 3.39-3.41 3.38 3.38 0 0 1 3.39 3.4Z" fill="#171717"/><path d="M7.4 9.47a.06.06 0 0 1-.03.06.06.06 0 0 1-.07-.01 1.63 1.63 0 0 1-.63-1.4 55.95 55.95 0 0 1 .03-1.26.1.1 0 0 1 .1-.06c.36.04.68.05.96.02 1-.07 1.76.36 1.85 1.42 0 .03.02.06.04.08.02.02.05.04.08.04h.45c.76-.02 1.39.3 1.6 1 .55 1.87-2.03 2.79-2.82 1-.17-.38-.07-1.1-.1-1.5-.03-.73-1.12-.8-1.4-.17-.1.21-.06.49-.06.78Z" fill="#BF7426"/><path d="M7.62 7.92a.02.02 0 0 1-.01-.02v-.01c0-.04.01-.09.04-.13a.37.37 0 0 1 .11-.1.85.85 0 0 1 .38-.1h.04c.15 0 .28.03.38.1.1.06.16.14.16.23a.02.02 0 0 1-.02.02H7.62ZM10.39 10.58a.74.74 0 1 0 0-1.49.74.74 0 0 0 0 1.49Z" fill="#171717"/></svg>