<!-- by TradingView --><svg width="18" height="18" viewBox="0 0 18 18" xmlns="http://www.w3.org/2000/svg"><path fill="#F0F3FA" d="M0 0h18v18H0z"/><path d="M13.3 10.75c0-.74-.92-.96-1.52-1.1-1.25-.28-2.55-.91-2.55-2.3C9.23 5.9 10.61 5 12.04 5c1.53 0 2.93.7 2.93 2.27l-1.75.02c0-.67-.5-.94-1.19-.94-.57 0-1.03.35-1.03.94 0 .7.76.86 1.33.99 1.34.29 2.67.9 2.67 2.38C15 12.2 13.51 13 12.05 13 10.5 13 9 12 9 10.43h1.67c.04.77.62 1.22 1.4 1.22.6 0 1.23-.26 1.23-.9Z" fill="#00C7FD"/><path d="M6.06 13C4.09 13 3 11.89 3 10.3V7.7C3 6.13 4.1 5 6.06 5 8.06 5 9 6.17 9 7.76V10H5v.6c0 .43.38.9 1 .9.58 0 1-.38 1-.79h2C9 12.28 7.94 13 6.06 13ZM5 9h2V7.5c0-.5-.33-1.04-.96-1.04C5.37 6.46 5 7 5 7.5V9Z" fill="#545454"/></svg>