<!-- by TradingView --><svg width="18" height="18" viewBox="0 0 18 18" xmlns="http://www.w3.org/2000/svg"><path fill="#F0F3FA" d="M0 0h18v18H0z"/><path d="m8.48 4 .03.01v.07a1 1 0 0 1-.02.23l-.04.06c0 .02-.02.03-.03.03H8.4c-.02 0-.05-.04-.07-.1a.83.83 0 0 1-.02-.22v-.04A.04.04 0 0 1 8.32 4 .04.04 0 0 1 8.35 4h.13Z" fill="#5E5C5D"/><path d="M8.48 5.13c-.03-.17-.01-.36.05-.56a.2.2 0 0 1 .08-.1.22.22 0 0 1 .13-.05h.04l.05.01a.1.1 0 0 1 .04.04.1.1 0 0 1 0 .1c-.06.14-.18.32-.23.54-.03.1-.12.16-.26.15a.1.1 0 0 1-.07-.02 1.32 1.32 0 0 1-.43-.77.1.1 0 0 1 0-.05.1.1 0 0 1 .03-.04.1.1 0 0 1 .1-.02c.05.01.08.04.12.07.03.03.05.08.06.12.05.29.12.5.2.6 0 .02 0 .03.02.03h.03c.02 0 .02-.01.03-.02v-.03ZM9.37 4.32a.02.02 0 0 1 .02 0 .03.03 0 0 1 .02 0v.01l.04.05v.06l-.01.06a.2.2 0 0 1-.04.06l-.08.07a.2.2 0 0 1-.13.05.15.15 0 0 1-.11-.04l-.02-.02.01-.02.3-.28ZM7.36 4.45a.02.02 0 0 1 .02 0 .03.03 0 0 1 .02 0l.03.01c.09.06.17.11.22.16.05.05.08.1.06.11l-.02.03c0 .02-.05.02-.12 0a1.35 1.35 0 0 1-.25-.13l-.03-.02-.01-.01v-.02l.08-.13ZM8.68 6l-.06-.54c0-.03 0-.07.03-.1.23-.3.44-.56.82-.5.04.01.07.03.09.05a.1.1 0 0 1 .02.08c0 .07-.04.12-.1.17-.3.2-.57.32-.63.63a.55.55 0 0 1-.09.22l-.02.02A.05.05 0 0 1 8.69 6V6ZM8.24 5.41l.01.02v.03h-.03a.18.18 0 0 1-.08 0 2.23 2.23 0 0 0-.75-.26.14.14 0 0 1-.06-.02.13.13 0 0 1-.03-.04.12.12 0 0 1-.01-.1c.02-.06.07-.09.15-.09.31 0 .58.24.8.46Z" fill="#5E5C5D"/><path d="M9.17 5.68c0-.08.04-.14.1-.17a1.6 1.6 0 0 1 1.01-.16l.79.24c.3.1.48.22.68.44.02.02.02.05.01.07a.08.08 0 0 1-.04.05h-.06c-.13-.06-.27-.05-.44.04a.1.1 0 0 0-.04.03l-.01.05v.31c0 .02 0 .04.02.06a.1.1 0 0 0 .05.04c.14.05.27.06.4.03h.05l.04.04a.08.08 0 0 1 0 .09c-.17.23-.43.4-.45.73l-.01.03-.03.02a.07.07 0 0 1-.06 0 .48.48 0 0 1-.14-.14 1.29 1.29 0 0 1-.16-1.27c.07-.19.07-.3.08-.49 0-.02-.01-.05-.03-.07a26.47 26.47 0 0 1-.6-.24 2.4 2.4 0 0 0-.65.01c-.14.01-.22.05-.23.1l-.01.02-.03.02a.44.44 0 0 0-.21.13h-.03v-.01Z" fill="#656565"/><path d="M7.27 5.4 7 5.42a.09.09 0 0 0-.08.1v.01c0 .05.05.08.1.08l.26-.03c.05 0 .08-.04.08-.1a.09.09 0 0 0-.1-.08ZM8.59 6.02a.03.03 0 0 1 0 .04h-.04a1.4 1.4 0 0 1-.32-.16.09.09 0 0 0-.05-.02H7.72v.02a.03.03 0 0 0 0 .04c.04.04.08.07.1.07a2.63 2.63 0 0 1 .69.26l.02.04a.08.08 0 0 1-.02.07.66.66 0 0 0-.13.25l-.01.02-.03.02a.06.06 0 0 1-.05 0c-.05-.04-.08-.09-.07-.14 0-.02 0-.03.02-.04a.08.08 0 0 1 .03-.03l.11-.04a.03.03 0 0 0 .02-.02.03.03 0 0 0 0-.02v-.02a.05.05 0 0 0-.03-.03h-.03c-.12 0-.2-.03-.27-.1a.22.22 0 0 0-.12-.08L7.27 6a.13.13 0 0 1-.05-.03.12.12 0 0 1 0-.17l.19-.19a.1.1 0 0 1 .04-.02c.5-.11.88.03 1.14.43ZM9.64 7.82h-.01l-.01.02v.02h.01c.23.08.45.1.66.05a6.87 6.87 0 0 1 1-.1l.04.03a.11.11 0 0 1 .02.1v.02a.21.21 0 0 1-.08.11.23.23 0 0 1-.13.05c-.1 0-.26.03-.45.07a1.9 1.9 0 0 1-1.6-.35l-.31-.25a.87.87 0 0 1-.28-.52l.01-.05c0-.01.02-.03.04-.03a.05.05 0 0 1 .06.01l.01.02c.12.63 1.32.64 1.62.16.26-.43.12-.92-.42-1.09a.57.57 0 0 0-.62.16.18.18 0 0 0-.05.13c0 .05.02.1.06.15.08.09.2.15.33.19l.08-.01a.88.88 0 0 0 .32-.25l.02-.01H10l.02.02v.02c-.03.38-.25.56-.63.54a.24.24 0 0 1-.1-.03c-.54-.28-.53-.75-.19-1.17a.14.14 0 0 1 .07-.05l.5-.13h.02c.72.04 1.1.73.96 1.34-.12.53-.45.8-1 .83Z" fill="#5E5C5D"/><path d="M13.07 6.27v.14l-.01.03a.06.06 0 0 1-.04.02H12.33l-.02.03-2 5.04-.02.02-.03.01h-.03l-.02-.02-.08-.14a.05.05 0 0 1 0-.05l1.9-4.83.01-.03v-.02L12 6.45h-.6c-.02 0-.03 0-.04-.02a.05.05 0 0 1-.02-.03v-.13c0-.01 0-.02.02-.03a.06.06 0 0 1 .04-.02H13c.02 0 .04 0 .05.02l.01.03ZM5.37 5.55c.1.1.26.17.44.15.2-.03.39 0 .58.06.03 0 .06.02.08.04a1.39 1.39 0 0 0 .57.3v.04h-.01c-.23.1-.54-.11-.73-.14-.31-.05-.5.07-.55.36a.11.11 0 0 0 .02.08.12.12 0 0 0 .08.05c.07.01.11-.1.25-.13a.1.1 0 0 0 .06-.05c.04-.06.11-.09.2-.09h1.36c.03 0 .07.01.1.03.03.02.06.05.07.08l2.2 5.6V12l-.72 1.77a.76.76 0 0 1-.12.2l-.02.02a.04.04 0 0 1-.03 0l-.01-.02-2.93-7.54a.07.07 0 0 0-.02-.03.07.07 0 0 0-.07-.01.07.07 0 0 0-.03.02c-.12.13-.2.27-.35.24-.3-.08-.22-.44-.1-.64L5.72 6a.06.06 0 0 0-.02-.05l-.02-.01c-.26-.09-.37-.22-.35-.38a.03.03 0 0 1 .02-.02h.03ZM7.74 6.6a.07.07 0 0 0-.05.09l1.97 5.14c.02.04.06.06.1.04a.07.07 0 0 0 .04-.09L7.83 6.65a.07.07 0 0 0-.09-.04Z" fill="#2B2A28"/><path d="M8.71 6.64c.02 0 .04.01.05.03.06.16.16.28.3.35.04.01.07.04.09.07l.02.1v.02l-.01.03-.03.03a.1.1 0 0 1-.08 0 .68.68 0 0 1-.42-.55v-.03l.02-.03.03-.02h.03ZM6.35 7.21c-.23-.05-.48-.03-.39.29.06.2.33.16.5.12a.17.17 0 0 1 .13.01l.05.05.02.06v.03c0 .04 0 .08-.03.12a.17.17 0 0 1-.1.06c-.4.06-.68 0-.87-.22-.19-.21-.13-.63.17-.77.15-.07.3-.09.48-.04a.1.1 0 0 1 .05.03.1.1 0 0 1 .02.05l.02.16v.02l-.01.02a.05.05 0 0 1-.04.01Z" fill="#5E5C5D"/><path d="M11.6 9.27a.03.03 0 0 1-.03-.02.03.03 0 0 1 0-.03l.03-.06a.1.1 0 0 1 .1-.04c.2.03.36-.25.48-.41a.23.23 0 0 0 .03-.08c.03-.11-.03-.26-.18-.46a.3.3 0 0 1-.04-.29l.24-.6a.1.1 0 0 1 .03-.03.1.1 0 0 1 .1-.02.1.1 0 0 1 .04.03c.36.44.35.87-.05 1.28a.39.39 0 0 0-.06.08c-.17.32-.27.6-.7.65ZM8.8 7.7c.25.19.65.5.62.81 0 .03-.02.05-.04.07l-.18.17a.08.08 0 0 1-.06.02.08.08 0 0 1-.06-.03.87.87 0 0 1-.14-.46c0-.01 0-.03-.02-.05L8.7 7.8a.06.06 0 0 1 .01-.08.07.07 0 0 1 .09 0ZM5.85 8.75c-.12-.18-.26-.3-.42-.4-.15-.07-.19-.2-.16-.35 0-.04.03-.07.07-.1a.24.24 0 0 1 .13-.03c.49 0 .54.52.48.85l-.01.03-.03.02h-.03a.06.06 0 0 1-.03-.02ZM6.36 10.7l-.01.02H6.29a1.66 1.66 0 0 1-.2-.76.17.17 0 0 0-.03-.1c-.21-.3-.17-.64.01-.94.17-.28.2-.5.15-.79V8.1l.02-.02a.05.05 0 0 1 .06 0c.23.19.48.47.5.75a.88.88 0 0 1-.12.61l-.4.57c-.2.3.1.43.08.69ZM5.22 9.11l.02.01h.03l.02-.02v-.03c-.04-.3-.18-.55-.41-.76l-.01-.02v-.02l.02-.01h.02c.4.12.65.33.77.63s.07.8.1 1.08a1.79 1.79 0 0 0 .41.94v.02l-.02.02h-.02a2.36 2.36 0 0 1-.48-.22c-.38-.24-.5-.57-.53-.97a.55.55 0 0 0-.4-.5.16.16 0 0 0-.1 0c-.22.1-.3.26-.27.5.02.11.1.2.19.28v.02l-.01.01h-.01c-.74-.2-.73-1.27.1-1.29.24 0 .44.19.58.33Z" fill="#656565"/><path d="M11.86 8.28a.01.01 0 0 1 .01 0 .1.1 0 0 1 .06.04l.02.1a.5.5 0 0 1-.01.13.74.74 0 0 1-.05.13l-.01.03c-.04.1-.1.17-.15.23-.06.05-.12.07-.16.05l-.01-.01.3-.7Z" fill="#5E5C5D"/><path d="M9.7 8.37c.11.08.18.2.2.35v.02l-.02.02a.05.05 0 0 1-.05.01l-.05-.02a.06.06 0 0 1-.03-.02v-.04c.01-.06-.02-.15-.1-.27a.03.03 0 0 1 0-.04l.02-.01h.03Z" fill="#9EA09E"/><path d="M11.02 8.6c0-.12-.05-.22-.1-.22-.06 0-.1.1-.1.22s.04.22.1.22c.06 0 .1-.1.1-.22ZM10.08 8.74l-.01-.02v-.03c0-.01 0-.02.02-.02h.03c.25.05.47.17.66.33l.04.06v.08a1.72 1.72 0 0 1-.29.68L10.15 11a.03.03 0 0 1-.04.01h-.01c-.07-.1-.06-.32-.03-.44a2.6 2.6 0 0 0 .12-1.18l.02-.01a.05.05 0 0 1 .05-.01h.02l.03.02.01.03.08.27.01.03a.05.05 0 0 0 .06 0l.02-.03a.84.84 0 0 0-.4-.95Z" fill="#5E5C5D"/><path d="M12.4 11.69a.02.02 0 0 1-.01-.02v-.02c.2-.1.3-.27.3-.5-.01-.7-.48-1.22-1.1-1.55l-.02-.01v-.03l.01-.02h.03c.59.16 1.02 0 1.3-.46a.09.09 0 0 0 .01-.08l-.09-.23a.03.03 0 0 1 .01-.04h.04c.23.15.33.33.33.54a.04.04 0 0 0 .01.04.05.05 0 0 0 .04.01c.08-.01.13-.07.15-.17 0-.01 0-.03.02-.04a.1.1 0 0 1 .05-.03h.05l.04.04c.02.03.02.09 0 .16 0 .02 0 .03-.02.04l-.03.02-.33.12a.06.06 0 0 0-.03.03.8.8 0 0 1-.33.36.04.04 0 0 0-.02.03v.04c.23.23.34.49.34.78 0 .08 0 .18.02.29.06.4-.4.7-.76.7Z" fill="#656565"/><path d="M9.62 8.8a1.5 1.5 0 0 1-.08 1.01.04.04 0 0 1-.04 0l-.02-.02-.18-.48a.22.22 0 0 1 .01-.2l.2-.33.03-.02a.06.06 0 0 1 .06.01l.02.03Z" fill="#5E5C5D"/><path d="M10.08 9.33a.7.7 0 0 0-.05.22 4.28 4.28 0 0 1 .01.69l-.19.44v.02H9.8l-.02-.01-.03-.06a.12.12 0 0 1 0-.13l.1-.18c.03-.05.05-.1.05-.17V8.86h.03a1 1 0 0 1 .14.41v.06ZM7.24 9.26c-.06-.12-.15-.2-.2-.17-.04.02-.02.13.04.25.07.12.16.2.2.18.05-.02.03-.14-.04-.26Z" fill="#9EA09E"/><path d="M13.8 9.37a.01.01 0 0 1 .02 0c.04.05.04.11 0 .18a.51.51 0 0 1-.17.19l-.05.03a.54.54 0 0 1-.24.1c-.08 0-.14-.02-.18-.07v-.02l.62-.4ZM11.3 9.68c.04 0 .07.02.1.05l.06.1.02.13c0 .05 0 .1-.02.15v.02a.52.52 0 0 1-.14.25c-.07.06-.14.08-.2.07h-.01l.2-.77ZM7.23 10.57l.07-.05c.45-.23-.26-1.02-.56-.3-.24.57.44 1.2.93 1.34h.02l.4.06a.1.1 0 0 1 .06.03.09.09 0 0 1 .01.08v.03l-.01.02-.02.01a.06.06 0 0 1-.05.01 3.04 3.04 0 0 1-1.33-.57c-.1-.1-.04-.17-.1-.28-.27-.48-.19-1.24.55-1.23.05 0 .1.02.14.04.04.02.07.06.1.1.04.07.1.18.16.34.1.23 0 .39-.26.48a.09.09 0 0 1-.1-.02.08.08 0 0 1-.02-.09ZM13.21 10.02h.03a.08.08 0 0 0 .07 0c.16-.09.37-.1.61-.04l.04.02a.1.1 0 0 1 .03.11v.03l-.05.05a.1.1 0 0 1-.06 0l-.4-.08h-.04l-.02.02a.04.04 0 0 0 0 .05l.24.24a.1.1 0 0 1 .02.1.1.1 0 0 1-.02.03.1.1 0 0 1-.04.03h-.01a.16.16 0 0 1-.1 0 .15.15 0 0 1-.09-.06l-.24-.41a.06.06 0 0 1 0-.08l.03-.01Z" fill="#5E5C5D"/><path d="M11.92 10.04c.18.14.3.31.36.53a.1.1 0 0 1 0 .08.11.11 0 0 1-.05.05l-.1.05a.07.07 0 0 1-.06 0 .07.07 0 0 1-.03-.02v-.03c-.01-.17-.07-.38-.18-.62v-.02l.01-.02a.04.04 0 0 1 .05 0ZM10.94 11.69l-.03.27a.78.78 0 0 1-.5.71.05.05 0 0 1-.04 0l-.02-.03v-.03c.16-.28.07-.44.04-.71v-.06l.28-.67c0-.01 0-.02.02-.03l.03-.01a.07.07 0 0 1 .07.02c.18.2.4.28.64.23.27-.06.32-.32.14-.5-.12-.12-.33-.07-.48-.02h-.02l-.02-.01v-.04c.32-.51.99-.22 1 .3 0 .34-.24.53-.57.59a1.38 1.38 0 0 1-.5-.05h-.02l-.01.02v.02ZM13.4 10.8c.06-.1.06-.18.01-.2-.05-.03-.13.01-.18.1-.05.08-.05.17 0 .2.05.02.13-.02.18-.1Z" fill="#656565"/><path d="M7.78 11.35a.07.07 0 0 1-.07.05h-.03c-.22-.12-.35-.29-.37-.5v-.04l.03-.02a.08.08 0 0 1 .07-.02h.01l.08.05c.02.02.04.05.04.08.03.14.1.25.22.35.02.01.02.03.02.05Z" fill="#5E5C5D"/><path d="M7.84 10.97c.04 0 .08-.04.08-.08a.08.08 0 0 0-.08-.07.08.08 0 0 0-.08.07c0 .04.04.08.08.08Z" fill="#656565"/><path d="m8.17 11.98.03.01.02.02.01.03v.03a.62.62 0 0 1-.51.36.08.08 0 0 1-.07-.02.07.07 0 0 1-.02-.07v-.01l.05-.08a.17.17 0 0 1 .09-.04c.14-.02.26-.1.36-.21.01-.02.03-.03.04-.02ZM8.29 12.26c.04.04.06.1.06.17 0 .22.02.42.08.6.03.11.04.2.02.28 0 .03-.01.05-.03.06a.15.15 0 0 1-.19.02c-.34-.22-.13-.85.03-1.12a.02.02 0 0 1 .02 0Z" fill="#5E5C5D"/></svg>