<!-- by TradingView --><svg width="18" height="18" viewBox="0 0 18 18" xmlns="http://www.w3.org/2000/svg"><path fill="#F0F3FA" d="M0 0h18v18H0z"/><path d="M9.43 4.02c-.27.58-.3 1.19-.12 1.83l-1.17.67a.07.07 0 0 0-.04.06c0 .03.01.05.04.07l.73.42c.08.04.09.1.03.18a7.83 7.83 0 0 1-4.62 2.98c-.1.03-.17-.01-.19-.12A5.05 5.05 0 0 1 9.43 4Z" fill="url(#a)"/><path d="M9.3 5.85a2.57 2.57 0 0 1 .13-1.83c.67.04 1.3.23 1.89.55.06.04.06.07 0 .11L9.3 5.85ZM11.6 13.3a3.3 3.3 0 0 0-.2-1.72c.16-.2.43-.17.82.1.03.03.06.03.1.01a.09.09 0 0 0 .04-.08V8.99a.1.1 0 0 0-.06-.1.11.11 0 0 0-.11 0l-.9.53c0-.34.05-.64.16-.88l.03-3.74a.1.1 0 0 1 .06-.08.09.09 0 0 1 .1 0 5.06 5.06 0 0 1-.03 8.58Z" fill="#51AED8"/><path d="M11.45 8.54c-.1.24-.16.54-.16.88l-1.35.76a.1.1 0 0 0-.06.09c0 .04.02.07.05.1.13.1.28.17.45.22.05.01.08.04.1.1.01.04 0 .08-.03.12a6.1 6.1 0 0 1-3.7 2.25 2.9 2.9 0 0 0-.22-1.8 10.33 10.33 0 0 0 3.83-3.18c.04-.05.1-.07.16-.03l.93.49Z" fill="url(#b)"/><path d="M6.53 11.26c.27.56.34 1.16.21 1.8-.31.18-.59.15-.81-.1-.54-.55-.88-.89-1.02-1a.1.1 0 0 1-.04-.1.1.1 0 0 1 .07-.1l1.6-.5Z" fill="#BED7B8"/><path d="M11.4 11.58c.22.57.29 1.14.2 1.72a4.7 4.7 0 0 1-3.24.62 7.77 7.77 0 0 0 3.04-2.33Z" fill="url(#c)"/><defs><linearGradient id="a" x1="4.7" y1="8.21" x2="9.13" y2="8.21" gradientUnits="userSpaceOnUse"><stop stop-color="#3184B0"/><stop offset="1" stop-color="#51AED8"/></linearGradient><linearGradient id="b" x1="11.45" y1="10.06" x2="7.03" y2="10.06" gradientUnits="userSpaceOnUse"><stop stop-color="#51AED8"/><stop offset="1" stop-color="#BED7B8"/></linearGradient><linearGradient id="c" x1="8.69" y1="14.14" x2="11.64" y2="14.14" gradientUnits="userSpaceOnUse"><stop stop-color="#99C4C4"/><stop offset="1" stop-color="#51AED8"/></linearGradient></defs></svg>