<!-- by TradingView --><svg width="18" height="18" viewBox="0 0 18 18" xmlns="http://www.w3.org/2000/svg"><path fill="#F0F3FA" d="M0 0h18v18H0z"/><path d="M13.08 6.32a1.4 1.4 0 0 0-.48-.2.22.22 0 0 0-.11 0 .2.2 0 0 0-.09.04l-1.93 1.88c-1.02.74-2.11 1.34-3.28 1.81l-2.23.63a1.55 1.55 0 0 1-.44.05l-.02-.02v-.02l.02-.02.54-.28a8.12 8.12 0 0 0 2.29-1.02l.1-.05a9.8 9.8 0 0 0 3.66-3.23l-.02-.05a.1.1 0 0 0-.04-.03.12.12 0 0 0-.05 0H9.8L9.8 5.8l-.01-.01v-.02l2.9-1.75a.14.14 0 0 1 .11-.01l.05.02a.1.1 0 0 1 .03.04l.63 2.28v.04l-.04.04a.12.12 0 0 1-.1 0l-.28-.1Z" fill="#F2AA00"/><path d="M7.43 8.98a.38.38 0 0 0-.08.19c-.67.44-1.43.78-2.3 1.02l1.18-4.24a.4.4 0 0 1 .18-.24c.08-.05.2-.1.3-.1h1.26a.44.44 0 0 1 .28.12l.07.12v.13l-.89 3Z" fill="#33768F"/><path d="M13.08 6.32c-.3 1.11-.58 2.21-.84 3.3a7.65 7.65 0 0 1-.75 1.86c-.72 1.31-3.08 1.71-4.64 1.44-1.56-.27-2.19-1.09-1.89-2.44l2.23-.63c-.09.51-.44 1.49.4 1.66 1.27.25 2.03-.14 2.31-1.17.2-.75.4-1.52.57-2.3l1.93-1.88a.2.2 0 0 1 .09-.04h.1c.21.05.37.12.49.2Z" fill="#33768F"/></svg>